<mxfile host="Electron" agent="Mozilla/5.0 (Windows NT 10.0; Win64; x64) AppleWebKit/537.36 (KHTML, like Gecko) draw.io/24.7.17 Chrome/128.0.6613.36 Electron/32.0.1 Safari/537.36" version="24.7.17">
  <diagram name="Page-1" id="i9A1wTt_vc3-WpKnK0Wb">
    <mxGraphModel dx="1322" dy="684" grid="1" gridSize="10" guides="1" tooltips="1" connect="1" arrows="1" fold="1" page="1" pageScale="1" pageWidth="850" pageHeight="1100" math="0" shadow="0">
      <root>
        <mxCell id="0" />
        <mxCell id="1" parent="0" />
        <mxCell id="zKw6uKs_GmK8JJH8dvJu-1" value="WalletFlow" style="rounded=1;arcSize=10;whiteSpace=wrap;html=1;align=center;" parent="1" vertex="1">
          <mxGeometry x="400" y="410" width="100" height="40" as="geometry" />
        </mxCell>
        <mxCell id="zKw6uKs_GmK8JJH8dvJu-2" value="Wallet" style="ellipse;whiteSpace=wrap;html=1;align=center;" parent="1" vertex="1">
          <mxGeometry x="290" y="320" width="100" height="40" as="geometry" />
        </mxCell>
        <mxCell id="zKw6uKs_GmK8JJH8dvJu-3" value="" style="endArrow=none;html=1;rounded=0;" parent="1" source="zKw6uKs_GmK8JJH8dvJu-2" target="zKw6uKs_GmK8JJH8dvJu-1" edge="1">
          <mxGeometry relative="1" as="geometry">
            <mxPoint x="340" y="470" as="sourcePoint" />
            <mxPoint x="500" y="470" as="targetPoint" />
          </mxGeometry>
        </mxCell>
        <mxCell id="zKw6uKs_GmK8JJH8dvJu-4" value="Type" style="ellipse;whiteSpace=wrap;html=1;align=center;" parent="1" vertex="1">
          <mxGeometry x="400" y="320" width="100" height="40" as="geometry" />
        </mxCell>
        <mxCell id="zKw6uKs_GmK8JJH8dvJu-5" value="" style="endArrow=none;html=1;rounded=0;" parent="1" source="zKw6uKs_GmK8JJH8dvJu-4" target="zKw6uKs_GmK8JJH8dvJu-1" edge="1">
          <mxGeometry relative="1" as="geometry">
            <mxPoint x="410" y="540" as="sourcePoint" />
            <mxPoint x="570" y="540" as="targetPoint" />
          </mxGeometry>
        </mxCell>
        <mxCell id="zKw6uKs_GmK8JJH8dvJu-6" value="OccuredAt" style="ellipse;whiteSpace=wrap;html=1;align=center;" parent="1" vertex="1">
          <mxGeometry x="510" y="320" width="100" height="40" as="geometry" />
        </mxCell>
        <mxCell id="zKw6uKs_GmK8JJH8dvJu-7" value="" style="endArrow=none;html=1;rounded=0;" parent="1" source="zKw6uKs_GmK8JJH8dvJu-1" target="zKw6uKs_GmK8JJH8dvJu-6" edge="1">
          <mxGeometry relative="1" as="geometry">
            <mxPoint x="560" y="430" as="sourcePoint" />
            <mxPoint x="720" y="430" as="targetPoint" />
          </mxGeometry>
        </mxCell>
      </root>
    </mxGraphModel>
  </diagram>
</mxfile>
